<?xml version="1.0"?>
<svg xmlns="http://www.w3.org/2000/svg" xmlns:xlink="http://www.w3.org/1999/xlink" viewBox="0 0 284.000000 100.000000" width="142.000000mm" height="50.000000mm" version="1.1">
<a xlink:href="drive-0x7f644c71a670.svg">
<rect x="1.000000" y="1.000000" width="283.000000" height="99.000000" rx="0" ry="0" style="stroke:none;fill:#cccccc;"/>
<rect x="0.000000" y="0.000000" width="283.000000" height="99.000000" rx="0" ry="0" style="stroke:none;fill:#ffffff;"/>
</a>
<text x="10.000000" y="7.000000" font-family="Arial" font-size="7"></text>
<rect x="51.000000" y="43.000000" width="24.000000" height="24.000000" rx="0" ry="0" style="stroke:none;fill:#cccccc;"/>
<rect x="50.000000" y="42.000000" width="24.000000" height="24.000000" rx="0" ry="0" style="stroke:none;fill:#f44800;"/>
<text x="62.000000" y="56.000000" font-family="Arial" font-size="7" text-anchor="middle" fill="#FFFFFF">0</text>
<circle cx="52.000000" cy="44.000000" r="1"/>
<line x1="41.000000" y1="33.000000" x2="41.000000" y2="75.000000"  style="stroke: black; stroke-linecap:round; stroke-width:0.25; stroke-dasharray:3,3;"/>
<line x1="41.000000" y1="75.000000" x2="83.000000" y2="75.000000"  style="stroke: black; stroke-linecap:round; stroke-width:0.25; stroke-dasharray:3,3;"/>
<line x1="83.000000" y1="75.000000" x2="83.000000" y2="33.000000"  style="stroke: black; stroke-linecap:round; stroke-width:0.25; stroke-dasharray:3,3;"/>
<line x1="41.000000" y1="33.000000" x2="46.000000" y2="33.000000"  style="stroke: black; stroke-linecap:round; stroke-width:0.25; stroke-dasharray:3,3;"/>
<line x1="65.350000" y1="33.000000" x2="83.000000" y2="33.000000"  style="stroke: black; stroke-linecap:round; stroke-width:0.25; stroke-dasharray:3,3;"/>
<text x="46.000000" y="35.000000" font-family="Arial" font-size="7">SAFE</text>
<a xlink:href="M-0x7f644c716de0.svg">
<rect x="101.000000" y="39.000000" width="24.000000" height="24.000000" rx="0" ry="0" style="stroke:none;fill:#cccccc;"/>
<rect x="100.000000" y="38.000000" width="24.000000" height="24.000000" rx="0" ry="0" style="stroke:none;fill:#003366;"/>
</a>
<a xlink:href="M-0x7f644c716de0.svg">
<text x="112.000000" y="52.000000" font-family="Arial" font-size="7" text-anchor="middle" fill="#FFFFFF">M</text>
</a>
<circle cx="102.000000" cy="40.000000" r="1"/>
<line x1="97.000000" y1="45.000000" x2="100.000000" y2="46.000000"  transform="rotate(0.000000,100.000000,46.000000)" style="stroke: black; stroke-width:0.25;"/>
<line x1="97.000000" y1="47.000000" x2="100.000000" y2="46.000000"  transform="rotate(0.000000,100.000000,46.000000)" style="stroke: black; stroke-width:0.25;"/>
<line x1="97.000000" y1="53.000000" x2="100.000000" y2="54.000000"  transform="rotate(0.000000,100.000000,54.000000)" style="stroke: black; stroke-width:0.25;"/>
<line x1="97.000000" y1="55.000000" x2="100.000000" y2="54.000000"  transform="rotate(0.000000,100.000000,54.000000)" style="stroke: black; stroke-width:0.25;"/>
<a xlink:href="M-0x7f644c716de0.svg">
<rect x="133.000000" y="39.000000" width="24.000000" height="24.000000" rx="0" ry="0" style="stroke:none;fill:#cccccc;"/>
<rect x="132.000000" y="38.000000" width="24.000000" height="24.000000" rx="0" ry="0" style="stroke:none;fill:#003366;"/>
</a>
<a xlink:href="M-0x7f644c716de0.svg">
<text x="144.000000" y="52.000000" font-family="Arial" font-size="7" text-anchor="middle" fill="#FFFFFF">M</text>
</a>
<circle cx="134.000000" cy="40.000000" r="1"/>
<line x1="129.000000" y1="45.000000" x2="132.000000" y2="46.000000"  transform="rotate(0.000000,132.000000,46.000000)" style="stroke: black; stroke-width:0.25;"/>
<line x1="129.000000" y1="47.000000" x2="132.000000" y2="46.000000"  transform="rotate(0.000000,132.000000,46.000000)" style="stroke: black; stroke-width:0.25;"/>
<line x1="129.000000" y1="53.000000" x2="132.000000" y2="54.000000"  transform="rotate(0.000000,132.000000,54.000000)" style="stroke: black; stroke-width:0.25;"/>
<line x1="129.000000" y1="55.000000" x2="132.000000" y2="54.000000"  transform="rotate(0.000000,132.000000,54.000000)" style="stroke: black; stroke-width:0.25;"/>
<a xlink:href="M-0x7f644c716de0.svg">
<rect x="165.000000" y="39.000000" width="24.000000" height="24.000000" rx="0" ry="0" style="stroke:none;fill:#cccccc;"/>
<rect x="164.000000" y="38.000000" width="24.000000" height="24.000000" rx="0" ry="0" style="stroke:none;fill:#003366;"/>
</a>
<a xlink:href="M-0x7f644c716de0.svg">
<text x="176.000000" y="52.000000" font-family="Arial" font-size="7" text-anchor="middle" fill="#FFFFFF">M</text>
</a>
<circle cx="166.000000" cy="40.000000" r="1"/>
<line x1="161.000000" y1="45.000000" x2="164.000000" y2="46.000000"  transform="rotate(0.000000,164.000000,46.000000)" style="stroke: black; stroke-width:0.25;"/>
<line x1="161.000000" y1="47.000000" x2="164.000000" y2="46.000000"  transform="rotate(0.000000,164.000000,46.000000)" style="stroke: black; stroke-width:0.25;"/>
<line x1="161.000000" y1="53.000000" x2="164.000000" y2="54.000000"  transform="rotate(0.000000,164.000000,54.000000)" style="stroke: black; stroke-width:0.25;"/>
<line x1="161.000000" y1="55.000000" x2="164.000000" y2="54.000000"  transform="rotate(0.000000,164.000000,54.000000)" style="stroke: black; stroke-width:0.25;"/>
<a xlink:href="M-0x7f644c716de0.svg">
<rect x="197.000000" y="39.000000" width="24.000000" height="24.000000" rx="0" ry="0" style="stroke:none;fill:#cccccc;"/>
<rect x="196.000000" y="38.000000" width="24.000000" height="24.000000" rx="0" ry="0" style="stroke:none;fill:#003366;"/>
</a>
<a xlink:href="M-0x7f644c716de0.svg">
<text x="208.000000" y="52.000000" font-family="Arial" font-size="7" text-anchor="middle" fill="#FFFFFF">M</text>
</a>
<circle cx="198.000000" cy="40.000000" r="1"/>
<line x1="193.000000" y1="45.000000" x2="196.000000" y2="46.000000"  transform="rotate(0.000000,196.000000,46.000000)" style="stroke: black; stroke-width:0.25;"/>
<line x1="193.000000" y1="47.000000" x2="196.000000" y2="46.000000"  transform="rotate(0.000000,196.000000,46.000000)" style="stroke: black; stroke-width:0.25;"/>
<line x1="193.000000" y1="53.000000" x2="196.000000" y2="54.000000"  transform="rotate(0.000000,196.000000,54.000000)" style="stroke: black; stroke-width:0.25;"/>
<line x1="193.000000" y1="55.000000" x2="196.000000" y2="54.000000"  transform="rotate(0.000000,196.000000,54.000000)" style="stroke: black; stroke-width:0.25;"/>
<a xlink:href="S-0x7f644c719ea0.svg">
<rect x="229.000000" y="39.000000" width="24.000000" height="24.000000" rx="0" ry="0" style="stroke:none;fill:#cccccc;"/>
<rect x="228.000000" y="38.000000" width="24.000000" height="24.000000" rx="0" ry="0" style="stroke:none;fill:#003366;"/>
</a>
<a xlink:href="S-0x7f644c719ea0.svg">
<text x="240.000000" y="52.000000" font-family="Arial" font-size="7" text-anchor="middle" fill="#FFFFFF">S</text>
</a>
<circle cx="230.000000" cy="40.000000" r="1"/>
<line x1="225.000000" y1="45.000000" x2="228.000000" y2="46.000000"  transform="rotate(0.000000,228.000000,46.000000)" style="stroke: black; stroke-width:0.25;"/>
<line x1="225.000000" y1="47.000000" x2="228.000000" y2="46.000000"  transform="rotate(0.000000,228.000000,46.000000)" style="stroke: black; stroke-width:0.25;"/>
<line x1="225.000000" y1="53.000000" x2="228.000000" y2="54.000000"  transform="rotate(0.000000,228.000000,54.000000)" style="stroke: black; stroke-width:0.25;"/>
<line x1="225.000000" y1="55.000000" x2="228.000000" y2="54.000000"  transform="rotate(0.000000,228.000000,54.000000)" style="stroke: black; stroke-width:0.25;"/>
<line x1="15.000000" y1="15.000000" x2="15.000000" y2="85.000000"  style="stroke: black; stroke-linecap:round; stroke-width:0.25; stroke-dasharray:3,3;"/>
<line x1="15.000000" y1="85.000000" x2="269.000000" y2="85.000000"  style="stroke: black; stroke-linecap:round; stroke-width:0.25; stroke-dasharray:3,3;"/>
<line x1="269.000000" y1="85.000000" x2="269.000000" y2="15.000000"  style="stroke: black; stroke-linecap:round; stroke-width:0.25; stroke-dasharray:3,3;"/>
<line x1="15.000000" y1="15.000000" x2="20.000000" y2="15.000000"  style="stroke: black; stroke-linecap:round; stroke-width:0.25; stroke-dasharray:3,3;"/>
<line x1="119.975000" y1="15.000000" x2="269.000000" y2="15.000000"  style="stroke: black; stroke-linecap:round; stroke-width:0.25; stroke-dasharray:3,3;"/>
<text x="20.000000" y="17.000000" font-family="Arial" font-size="7">fmoog(vslider...e+03f, 1.0f))</text>
<line x1="271.000000" y1="49.000000" x2="274.000000" y2="50.000000"  transform="rotate(0.000000,274.000000,50.000000)" style="stroke: black; stroke-width:0.25;"/>
<line x1="271.000000" y1="51.000000" x2="274.000000" y2="50.000000"  transform="rotate(0.000000,274.000000,50.000000)" style="stroke: black; stroke-width:0.25;"/>
<line x1="10.000000" y1="50.000000" x2="20.000000" y2="50.000000"  style="stroke:black; stroke-linecap:round; stroke-width:0.25;"/>
<line x1="20.000000" y1="50.000000" x2="24.000000" y2="50.000000"  style="stroke:black; stroke-linecap:round; stroke-width:0.25;"/>
<line x1="24.000000" y1="50.000000" x2="28.000000" y2="50.000000"  style="stroke:black; stroke-linecap:round; stroke-width:0.25;"/>
<line x1="28.000000" y1="24.000000" x2="36.000000" y2="24.000000"  style="stroke:black; stroke-linecap:round; stroke-width:0.25;"/>
<line x1="28.000000" y1="50.000000" x2="28.000000" y2="24.000000"  style="stroke:black; stroke-linecap:round; stroke-width:0.25;"/>
<line x1="28.000000" y1="50.000000" x2="28.000000" y2="50.000000"  style="stroke:black; stroke-linecap:round; stroke-width:0.25;"/>
<line x1="36.000000" y1="24.000000" x2="62.000000" y2="24.000000"  style="stroke:black; stroke-linecap:round; stroke-width:0.25;"/>
<line x1="62.000000" y1="24.000000" x2="88.000000" y2="24.000000"  style="stroke:black; stroke-linecap:round; stroke-width:0.25;"/>
<line x1="74.000000" y1="54.000000" x2="78.000000" y2="54.000000"  style="stroke:black; stroke-linecap:round; stroke-width:0.25;"/>
<line x1="78.000000" y1="54.000000" x2="88.000000" y2="54.000000"  style="stroke:black; stroke-linecap:round; stroke-width:0.25;"/>
<line x1="88.000000" y1="24.000000" x2="96.000000" y2="24.000000"  style="stroke:black; stroke-linecap:round; stroke-width:0.25;"/>
<line x1="88.000000" y1="54.000000" x2="96.000000" y2="54.000000"  style="stroke:black; stroke-linecap:round; stroke-width:0.25;"/>
<line x1="96.000000" y1="24.000000" x2="96.000000" y2="46.000000"  style="stroke:black; stroke-linecap:round; stroke-width:0.25;"/>
<line x1="96.000000" y1="46.000000" x2="96.000000" y2="46.000000"  style="stroke:black; stroke-linecap:round; stroke-width:0.25;"/>
<line x1="96.000000" y1="46.000000" x2="100.000000" y2="46.000000"  style="stroke:black; stroke-linecap:round; stroke-width:0.25;"/>
<line x1="96.000000" y1="54.000000" x2="100.000000" y2="54.000000"  style="stroke:black; stroke-linecap:round; stroke-width:0.25;"/>
<line x1="124.000000" y1="46.000000" x2="128.000000" y2="46.000000"  style="stroke:black; stroke-linecap:round; stroke-width:0.25;"/>
<line x1="124.000000" y1="54.000000" x2="128.000000" y2="54.000000"  style="stroke:black; stroke-linecap:round; stroke-width:0.25;"/>
<line x1="128.000000" y1="46.000000" x2="128.000000" y2="46.000000"  style="stroke:black; stroke-linecap:round; stroke-width:0.25;"/>
<line x1="128.000000" y1="46.000000" x2="132.000000" y2="46.000000"  style="stroke:black; stroke-linecap:round; stroke-width:0.25;"/>
<line x1="128.000000" y1="54.000000" x2="128.000000" y2="54.000000"  style="stroke:black; stroke-linecap:round; stroke-width:0.25;"/>
<line x1="128.000000" y1="54.000000" x2="132.000000" y2="54.000000"  style="stroke:black; stroke-linecap:round; stroke-width:0.25;"/>
<line x1="156.000000" y1="46.000000" x2="160.000000" y2="46.000000"  style="stroke:black; stroke-linecap:round; stroke-width:0.25;"/>
<line x1="156.000000" y1="54.000000" x2="160.000000" y2="54.000000"  style="stroke:black; stroke-linecap:round; stroke-width:0.25;"/>
<line x1="160.000000" y1="46.000000" x2="160.000000" y2="46.000000"  style="stroke:black; stroke-linecap:round; stroke-width:0.25;"/>
<line x1="160.000000" y1="46.000000" x2="164.000000" y2="46.000000"  style="stroke:black; stroke-linecap:round; stroke-width:0.25;"/>
<line x1="160.000000" y1="54.000000" x2="160.000000" y2="54.000000"  style="stroke:black; stroke-linecap:round; stroke-width:0.25;"/>
<line x1="160.000000" y1="54.000000" x2="164.000000" y2="54.000000"  style="stroke:black; stroke-linecap:round; stroke-width:0.25;"/>
<line x1="188.000000" y1="46.000000" x2="192.000000" y2="46.000000"  style="stroke:black; stroke-linecap:round; stroke-width:0.25;"/>
<line x1="188.000000" y1="54.000000" x2="192.000000" y2="54.000000"  style="stroke:black; stroke-linecap:round; stroke-width:0.25;"/>
<line x1="192.000000" y1="46.000000" x2="192.000000" y2="46.000000"  style="stroke:black; stroke-linecap:round; stroke-width:0.25;"/>
<line x1="192.000000" y1="46.000000" x2="196.000000" y2="46.000000"  style="stroke:black; stroke-linecap:round; stroke-width:0.25;"/>
<line x1="192.000000" y1="54.000000" x2="192.000000" y2="54.000000"  style="stroke:black; stroke-linecap:round; stroke-width:0.25;"/>
<line x1="192.000000" y1="54.000000" x2="196.000000" y2="54.000000"  style="stroke:black; stroke-linecap:round; stroke-width:0.25;"/>
<line x1="220.000000" y1="46.000000" x2="224.000000" y2="46.000000"  style="stroke:black; stroke-linecap:round; stroke-width:0.25;"/>
<line x1="220.000000" y1="54.000000" x2="224.000000" y2="54.000000"  style="stroke:black; stroke-linecap:round; stroke-width:0.25;"/>
<line x1="224.000000" y1="46.000000" x2="224.000000" y2="46.000000"  style="stroke:black; stroke-linecap:round; stroke-width:0.25;"/>
<line x1="224.000000" y1="46.000000" x2="228.000000" y2="46.000000"  style="stroke:black; stroke-linecap:round; stroke-width:0.25;"/>
<line x1="224.000000" y1="54.000000" x2="224.000000" y2="54.000000"  style="stroke:black; stroke-linecap:round; stroke-width:0.25;"/>
<line x1="224.000000" y1="54.000000" x2="228.000000" y2="54.000000"  style="stroke:black; stroke-linecap:round; stroke-width:0.25;"/>
<line x1="252.000000" y1="50.000000" x2="256.000000" y2="50.000000"  style="stroke:black; stroke-linecap:round; stroke-width:0.25;"/>
<line x1="256.000000" y1="50.000000" x2="256.000000" y2="50.000000"  style="stroke:black; stroke-linecap:round; stroke-width:0.25;"/>
<line x1="256.000000" y1="50.000000" x2="260.000000" y2="50.000000"  style="stroke:black; stroke-linecap:round; stroke-width:0.25;"/>
<line x1="260.000000" y1="50.000000" x2="264.000000" y2="50.000000"  style="stroke:black; stroke-linecap:round; stroke-width:0.25;"/>
<line x1="264.000000" y1="50.000000" x2="274.000000" y2="50.000000"  style="stroke:black; stroke-linecap:round; stroke-width:0.25;"/>
</svg>
