<?xml version="1.0"?>
<svg xmlns="http://www.w3.org/2000/svg" xmlns:xlink="http://www.w3.org/1999/xlink" viewBox="0 0 349.500000 196.000000" width="174.750000mm" height="98.000000mm" version="1.1">
<a xlink:href="clippedFreq-0x7f644c20e450.svg">
<rect x="1.000000" y="1.000000" width="348.500000" height="195.000000" rx="0" ry="0" style="stroke:none;fill:#cccccc;"/>
<rect x="0.000000" y="0.000000" width="348.500000" height="195.000000" rx="0" ry="0" style="stroke:none;fill:#ffffff;"/>
</a>
<text x="10.000000" y="7.000000" font-family="Arial" font-size="7"></text>
<rect x="35.000000" y="35.000000" width="193.500000" height="24.000000" rx="0" ry="0" style="stroke:none;fill:#cccccc;"/>
<rect x="34.000000" y="34.000000" width="193.500000" height="24.000000" rx="0" ry="0" style="stroke:none;fill:#477881;"/>
<text x="130.750000" y="48.000000" font-family="Arial" font-size="7" text-anchor="middle" fill="#FFFFFF">vslider(freq, 3.3e+02f, 2e+01f, 5e+03f, 1.0f)</text>
<circle cx="36.000000" cy="36.000000" r="1"/>
<line x1="25.000000" y1="25.000000" x2="25.000000" y2="67.000000"  style="stroke: black; stroke-linecap:round; stroke-width:0.25; stroke-dasharray:3,3;"/>
<line x1="25.000000" y1="67.000000" x2="236.500000" y2="67.000000"  style="stroke: black; stroke-linecap:round; stroke-width:0.25; stroke-dasharray:3,3;"/>
<line x1="236.500000" y1="67.000000" x2="236.500000" y2="25.000000"  style="stroke: black; stroke-linecap:round; stroke-width:0.25; stroke-dasharray:3,3;"/>
<line x1="25.000000" y1="25.000000" x2="30.000000" y2="25.000000"  style="stroke: black; stroke-linecap:round; stroke-width:0.25; stroke-dasharray:3,3;"/>
<line x1="49.350000" y1="25.000000" x2="236.500000" y2="25.000000"  style="stroke: black; stroke-linecap:round; stroke-width:0.25; stroke-dasharray:3,3;"/>
<text x="30.000000" y="27.000000" font-family="Arial" font-size="7">freq</text>
<rect x="41.450000" y="87.000000" width="180.600000" height="24.000000" rx="0" ry="0" style="stroke:none;fill:#cccccc;"/>
<rect x="40.450000" y="86.000000" width="180.600000" height="24.000000" rx="0" ry="0" style="stroke:none;fill:#477881;"/>
<text x="130.750000" y="100.000000" font-family="Arial" font-size="7" text-anchor="middle" fill="#FFFFFF">vslider(delta, 0.1f, 0.05f, 2.0f, 0.05f)</text>
<circle cx="42.450000" cy="88.000000" r="1"/>
<line x1="31.450000" y1="77.000000" x2="31.450000" y2="119.000000"  style="stroke: black; stroke-linecap:round; stroke-width:0.25; stroke-dasharray:3,3;"/>
<line x1="31.450000" y1="119.000000" x2="230.050000" y2="119.000000"  style="stroke: black; stroke-linecap:round; stroke-width:0.25; stroke-dasharray:3,3;"/>
<line x1="230.050000" y1="119.000000" x2="230.050000" y2="77.000000"  style="stroke: black; stroke-linecap:round; stroke-width:0.25; stroke-dasharray:3,3;"/>
<line x1="31.450000" y1="77.000000" x2="36.450000" y2="77.000000"  style="stroke: black; stroke-linecap:round; stroke-width:0.25; stroke-dasharray:3,3;"/>
<line x1="59.025000" y1="77.000000" x2="230.050000" y2="77.000000"  style="stroke: black; stroke-linecap:round; stroke-width:0.25; stroke-dasharray:3,3;"/>
<text x="36.450000" y="79.000000" font-family="Arial" font-size="7">delta</text>
<rect x="254.500000" y="61.000000" width="24.000000" height="24.000000" rx="0" ry="0" style="stroke:none;fill:#cccccc;"/>
<rect x="253.500000" y="60.000000" width="24.000000" height="24.000000" rx="0" ry="0" style="stroke:none;fill:#4B71A1;"/>
<text x="265.500000" y="74.000000" font-family="Arial" font-size="7" text-anchor="middle" fill="#FFFFFF">+</text>
<circle cx="255.500000" cy="62.000000" r="1"/>
<line x1="250.500000" y1="67.000000" x2="253.500000" y2="68.000000"  transform="rotate(0.000000,253.500000,68.000000)" style="stroke: black; stroke-width:0.25;"/>
<line x1="250.500000" y1="69.000000" x2="253.500000" y2="68.000000"  transform="rotate(0.000000,253.500000,68.000000)" style="stroke: black; stroke-width:0.25;"/>
<line x1="250.500000" y1="75.000000" x2="253.500000" y2="76.000000"  transform="rotate(0.000000,253.500000,76.000000)" style="stroke: black; stroke-width:0.25;"/>
<line x1="250.500000" y1="77.000000" x2="253.500000" y2="76.000000"  transform="rotate(0.000000,253.500000,76.000000)" style="stroke: black; stroke-width:0.25;"/>
<rect x="132.400000" y="139.000000" width="38.700000" height="24.000000" rx="0" ry="0" style="stroke:none;fill:#cccccc;"/>
<rect x="131.400000" y="138.000000" width="38.700000" height="24.000000" rx="0" ry="0" style="stroke:none;fill:#f44800;"/>
<text x="150.750000" y="152.000000" font-family="Arial" font-size="7" text-anchor="middle" fill="#FFFFFF">23.44895f</text>
<circle cx="133.400000" cy="140.000000" r="1"/>
<line x1="122.400000" y1="129.000000" x2="122.400000" y2="171.000000"  style="stroke: black; stroke-linecap:round; stroke-width:0.25; stroke-dasharray:3,3;"/>
<line x1="122.400000" y1="171.000000" x2="179.100000" y2="171.000000"  style="stroke: black; stroke-linecap:round; stroke-width:0.25; stroke-dasharray:3,3;"/>
<line x1="179.100000" y1="171.000000" x2="179.100000" y2="129.000000"  style="stroke: black; stroke-linecap:round; stroke-width:0.25; stroke-dasharray:3,3;"/>
<line x1="122.400000" y1="129.000000" x2="127.400000" y2="129.000000"  style="stroke: black; stroke-linecap:round; stroke-width:0.25; stroke-dasharray:3,3;"/>
<line x1="146.750000" y1="129.000000" x2="179.100000" y2="129.000000"  style="stroke: black; stroke-linecap:round; stroke-width:0.25; stroke-dasharray:3,3;"/>
<text x="127.400000" y="131.000000" font-family="Arial" font-size="7">fmin</text>
<rect x="294.500000" y="87.000000" width="24.000000" height="24.000000" rx="0" ry="0" style="stroke:none;fill:#cccccc;"/>
<rect x="293.500000" y="86.000000" width="24.000000" height="24.000000" rx="0" ry="0" style="stroke:none;fill:#4B71A1;"/>
<text x="305.500000" y="100.000000" font-family="Arial" font-size="7" text-anchor="middle" fill="#FFFFFF">max</text>
<circle cx="295.500000" cy="88.000000" r="1"/>
<line x1="290.500000" y1="93.000000" x2="293.500000" y2="94.000000"  transform="rotate(0.000000,293.500000,94.000000)" style="stroke: black; stroke-width:0.25;"/>
<line x1="290.500000" y1="95.000000" x2="293.500000" y2="94.000000"  transform="rotate(0.000000,293.500000,94.000000)" style="stroke: black; stroke-width:0.25;"/>
<line x1="290.500000" y1="101.000000" x2="293.500000" y2="102.000000"  transform="rotate(0.000000,293.500000,102.000000)" style="stroke: black; stroke-width:0.25;"/>
<line x1="290.500000" y1="103.000000" x2="293.500000" y2="102.000000"  transform="rotate(0.000000,293.500000,102.000000)" style="stroke: black; stroke-width:0.25;"/>
<line x1="15.000000" y1="15.000000" x2="15.000000" y2="181.000000"  style="stroke: black; stroke-linecap:round; stroke-width:0.25; stroke-dasharray:3,3;"/>
<line x1="15.000000" y1="181.000000" x2="334.500000" y2="181.000000"  style="stroke: black; stroke-linecap:round; stroke-width:0.25; stroke-dasharray:3,3;"/>
<line x1="334.500000" y1="181.000000" x2="334.500000" y2="15.000000"  style="stroke: black; stroke-linecap:round; stroke-width:0.25; stroke-dasharray:3,3;"/>
<line x1="15.000000" y1="15.000000" x2="20.000000" y2="15.000000"  style="stroke: black; stroke-linecap:round; stroke-width:0.25; stroke-dasharray:3,3;"/>
<line x1="42.575000" y1="15.000000" x2="334.500000" y2="15.000000"  style="stroke: black; stroke-linecap:round; stroke-width:0.25; stroke-dasharray:3,3;"/>
<text x="20.000000" y="17.000000" font-family="Arial" font-size="7">freqC</text>
<line x1="336.500000" y1="97.000000" x2="339.500000" y2="98.000000"  transform="rotate(0.000000,339.500000,98.000000)" style="stroke: black; stroke-width:0.25;"/>
<line x1="336.500000" y1="99.000000" x2="339.500000" y2="98.000000"  transform="rotate(0.000000,339.500000,98.000000)" style="stroke: black; stroke-width:0.25;"/>
<line x1="170.100000" y1="150.000000" x2="174.100000" y2="150.000000"  style="stroke:black; stroke-linecap:round; stroke-width:0.25;"/>
<line x1="174.100000" y1="150.000000" x2="184.100000" y2="150.000000"  style="stroke:black; stroke-linecap:round; stroke-width:0.25;"/>
<line x1="184.100000" y1="150.000000" x2="281.500000" y2="150.000000"  style="stroke:black; stroke-linecap:round; stroke-width:0.25;"/>
<line x1="221.050000" y1="98.000000" x2="225.050000" y2="98.000000"  style="stroke:black; stroke-linecap:round; stroke-width:0.25;"/>
<line x1="225.050000" y1="98.000000" x2="235.050000" y2="98.000000"  style="stroke:black; stroke-linecap:round; stroke-width:0.25;"/>
<line x1="227.500000" y1="46.000000" x2="231.500000" y2="46.000000"  style="stroke:black; stroke-linecap:round; stroke-width:0.25;"/>
<line x1="231.500000" y1="46.000000" x2="241.500000" y2="46.000000"  style="stroke:black; stroke-linecap:round; stroke-width:0.25;"/>
<line x1="235.050000" y1="98.000000" x2="241.500000" y2="98.000000"  style="stroke:black; stroke-linecap:round; stroke-width:0.25;"/>
<line x1="241.500000" y1="46.000000" x2="249.500000" y2="46.000000"  style="stroke:black; stroke-linecap:round; stroke-width:0.25;"/>
<line x1="241.500000" y1="76.000000" x2="249.500000" y2="76.000000"  style="stroke:black; stroke-linecap:round; stroke-width:0.25;"/>
<line x1="241.500000" y1="98.000000" x2="241.500000" y2="76.000000"  style="stroke:black; stroke-linecap:round; stroke-width:0.25;"/>
<line x1="241.500000" y1="98.000000" x2="241.500000" y2="98.000000"  style="stroke:black; stroke-linecap:round; stroke-width:0.25;"/>
<line x1="249.500000" y1="46.000000" x2="249.500000" y2="68.000000"  style="stroke:black; stroke-linecap:round; stroke-width:0.25;"/>
<line x1="249.500000" y1="68.000000" x2="249.500000" y2="68.000000"  style="stroke:black; stroke-linecap:round; stroke-width:0.25;"/>
<line x1="249.500000" y1="68.000000" x2="253.500000" y2="68.000000"  style="stroke:black; stroke-linecap:round; stroke-width:0.25;"/>
<line x1="249.500000" y1="76.000000" x2="253.500000" y2="76.000000"  style="stroke:black; stroke-linecap:round; stroke-width:0.25;"/>
<line x1="277.500000" y1="72.000000" x2="281.500000" y2="72.000000"  style="stroke:black; stroke-linecap:round; stroke-width:0.25;"/>
<line x1="281.500000" y1="72.000000" x2="289.500000" y2="72.000000"  style="stroke:black; stroke-linecap:round; stroke-width:0.25;"/>
<line x1="281.500000" y1="102.000000" x2="289.500000" y2="102.000000"  style="stroke:black; stroke-linecap:round; stroke-width:0.25;"/>
<line x1="281.500000" y1="150.000000" x2="281.500000" y2="102.000000"  style="stroke:black; stroke-linecap:round; stroke-width:0.25;"/>
<line x1="281.500000" y1="150.000000" x2="281.500000" y2="150.000000"  style="stroke:black; stroke-linecap:round; stroke-width:0.25;"/>
<line x1="289.500000" y1="72.000000" x2="289.500000" y2="94.000000"  style="stroke:black; stroke-linecap:round; stroke-width:0.25;"/>
<line x1="289.500000" y1="94.000000" x2="289.500000" y2="94.000000"  style="stroke:black; stroke-linecap:round; stroke-width:0.25;"/>
<line x1="289.500000" y1="94.000000" x2="293.500000" y2="94.000000"  style="stroke:black; stroke-linecap:round; stroke-width:0.25;"/>
<line x1="289.500000" y1="102.000000" x2="293.500000" y2="102.000000"  style="stroke:black; stroke-linecap:round; stroke-width:0.25;"/>
<line x1="317.500000" y1="98.000000" x2="321.500000" y2="98.000000"  style="stroke:black; stroke-linecap:round; stroke-width:0.25;"/>
<line x1="321.500000" y1="98.000000" x2="321.500000" y2="98.000000"  style="stroke:black; stroke-linecap:round; stroke-width:0.25;"/>
<line x1="321.500000" y1="98.000000" x2="325.500000" y2="98.000000"  style="stroke:black; stroke-linecap:round; stroke-width:0.25;"/>
<line x1="325.500000" y1="98.000000" x2="329.500000" y2="98.000000"  style="stroke:black; stroke-linecap:round; stroke-width:0.25;"/>
<line x1="329.500000" y1="98.000000" x2="339.500000" y2="98.000000"  style="stroke:black; stroke-linecap:round; stroke-width:0.25;"/>
</svg>
