<?xml version="1.0"?>
<svg xmlns="http://www.w3.org/2000/svg" xmlns:xlink="http://www.w3.org/1999/xlink" viewBox="0 0 317.400000 232.000000" width="158.700000mm" height="116.000000mm" version="1.1">
<a xlink:href="fmoog-0x7f644c71a410.svg">
<rect x="1.000000" y="1.000000" width="316.400000" height="231.000000" rx="0" ry="0" style="stroke:none;fill:#cccccc;"/>
<rect x="0.000000" y="0.000000" width="316.400000" height="231.000000" rx="0" ry="0" style="stroke:none;fill:#ffffff;"/>
</a>
<text x="10.000000" y="7.000000" font-family="Arial" font-size="7"></text>
<rect x="41.000000" y="89.000000" width="38.700000" height="24.000000" rx="0" ry="0" style="stroke:none;fill:#cccccc;"/>
<rect x="40.000000" y="88.000000" width="38.700000" height="24.000000" rx="0" ry="0" style="stroke:none;fill:#47945E;"/>
<text x="59.350000" y="102.000000" font-family="Arial" font-size="7" text-anchor="middle" fill="#FFFFFF">[51] u1</text>
<circle cx="42.000000" cy="90.000000" r="1"/>
<line x1="37.000000" y1="99.000000" x2="40.000000" y2="100.000000"  transform="rotate(0.000000,40.000000,100.000000)" style="stroke: black; stroke-width:0.25;"/>
<line x1="37.000000" y1="101.000000" x2="40.000000" y2="100.000000"  transform="rotate(0.000000,40.000000,100.000000)" style="stroke: black; stroke-width:0.25;"/>
<rect x="41.000000" y="121.000000" width="38.700000" height="24.000000" rx="0" ry="0" style="stroke:none;fill:#cccccc;"/>
<rect x="40.000000" y="120.000000" width="38.700000" height="24.000000" rx="0" ry="0" style="stroke:none;fill:#47945E;"/>
<text x="59.350000" y="134.000000" font-family="Arial" font-size="7" text-anchor="middle" fill="#FFFFFF">[52] u3</text>
<circle cx="42.000000" cy="122.000000" r="1"/>
<line x1="37.000000" y1="131.000000" x2="40.000000" y2="132.000000"  transform="rotate(0.000000,40.000000,132.000000)" style="stroke: black; stroke-width:0.25;"/>
<line x1="37.000000" y1="133.000000" x2="40.000000" y2="132.000000"  transform="rotate(0.000000,40.000000,132.000000)" style="stroke: black; stroke-width:0.25;"/>
<rect x="147.700000" y="25.000000" width="38.700000" height="24.000000" rx="0" ry="0" style="stroke:none;fill:#cccccc;"/>
<rect x="146.700000" y="24.000000" width="38.700000" height="24.000000" rx="0" ry="0" style="stroke:none;fill:#47945E;"/>
<text x="166.050000" y="38.000000" font-family="Arial" font-size="7" text-anchor="middle" fill="#FFFFFF">[51] u1</text>
<circle cx="148.700000" cy="26.000000" r="1"/>
<a xlink:href="F1-0x7f644c2efc50.svg">
<rect x="194.400000" y="25.000000" width="24.000000" height="24.000000" rx="0" ry="0" style="stroke:none;fill:#cccccc;"/>
<rect x="193.400000" y="24.000000" width="24.000000" height="24.000000" rx="0" ry="0" style="stroke:none;fill:#003366;"/>
</a>
<a xlink:href="F1-0x7f644c2efc50.svg">
<text x="205.400000" y="38.000000" font-family="Arial" font-size="7" text-anchor="middle" fill="#FFFFFF">F1</text>
</a>
<circle cx="195.400000" cy="26.000000" r="1"/>
<line x1="190.400000" y1="35.000000" x2="193.400000" y2="36.000000"  transform="rotate(0.000000,193.400000,36.000000)" style="stroke: black; stroke-width:0.25;"/>
<line x1="190.400000" y1="37.000000" x2="193.400000" y2="36.000000"  transform="rotate(0.000000,193.400000,36.000000)" style="stroke: black; stroke-width:0.25;"/>
<rect x="107.700000" y="57.000000" width="38.700000" height="24.000000" rx="0" ry="0" style="stroke:none;fill:#cccccc;"/>
<rect x="106.700000" y="56.000000" width="38.700000" height="24.000000" rx="0" ry="0" style="stroke:none;fill:#47945E;"/>
<text x="126.050000" y="70.000000" font-family="Arial" font-size="7" text-anchor="middle" fill="#FFFFFF">[52] u3</text>
<circle cx="108.700000" cy="58.000000" r="1"/>
<rect x="87.700000" y="89.000000" width="38.700000" height="24.000000" rx="0" ry="0" style="stroke:none;fill:#cccccc;"/>
<rect x="86.700000" y="88.000000" width="38.700000" height="24.000000" rx="0" ry="0" style="stroke:none;fill:#47945E;"/>
<text x="106.050000" y="102.000000" font-family="Arial" font-size="7" text-anchor="middle" fill="#FFFFFF">[51] u1</text>
<circle cx="88.700000" cy="90.000000" r="1"/>
<rect x="95.050000" y="121.000000" width="24.000000" height="24.000000" rx="0" ry="0" style="stroke:none;fill:#cccccc;"/>
<rect x="94.050000" y="120.000000" width="24.000000" height="24.000000" rx="0" ry="0" style="stroke:none;fill:#f44800;"/>
<text x="106.050000" y="134.000000" font-family="Arial" font-size="7" text-anchor="middle" fill="#FFFFFF">3</text>
<circle cx="96.050000" cy="122.000000" r="1"/>
<rect x="142.400000" y="105.000000" width="24.000000" height="24.000000" rx="0" ry="0" style="stroke:none;fill:#cccccc;"/>
<rect x="141.400000" y="104.000000" width="24.000000" height="24.000000" rx="0" ry="0" style="stroke:none;fill:#4B71A1;"/>
<text x="153.400000" y="118.000000" font-family="Arial" font-size="7" text-anchor="middle" fill="#FFFFFF">pow</text>
<circle cx="143.400000" cy="106.000000" r="1"/>
<line x1="138.400000" y1="111.000000" x2="141.400000" y2="112.000000"  transform="rotate(0.000000,141.400000,112.000000)" style="stroke: black; stroke-width:0.25;"/>
<line x1="138.400000" y1="113.000000" x2="141.400000" y2="112.000000"  transform="rotate(0.000000,141.400000,112.000000)" style="stroke: black; stroke-width:0.25;"/>
<line x1="138.400000" y1="119.000000" x2="141.400000" y2="120.000000"  transform="rotate(0.000000,141.400000,120.000000)" style="stroke: black; stroke-width:0.25;"/>
<line x1="138.400000" y1="121.000000" x2="141.400000" y2="120.000000"  transform="rotate(0.000000,141.400000,120.000000)" style="stroke: black; stroke-width:0.25;"/>
<rect x="182.400000" y="89.000000" width="24.000000" height="24.000000" rx="0" ry="0" style="stroke:none;fill:#cccccc;"/>
<rect x="181.400000" y="88.000000" width="24.000000" height="24.000000" rx="0" ry="0" style="stroke:none;fill:#4B71A1;"/>
<text x="193.400000" y="102.000000" font-family="Arial" font-size="7" text-anchor="middle" fill="#FFFFFF">+</text>
<circle cx="183.400000" cy="90.000000" r="1"/>
<line x1="178.400000" y1="95.000000" x2="181.400000" y2="96.000000"  transform="rotate(0.000000,181.400000,96.000000)" style="stroke: black; stroke-width:0.25;"/>
<line x1="178.400000" y1="97.000000" x2="181.400000" y2="96.000000"  transform="rotate(0.000000,181.400000,96.000000)" style="stroke: black; stroke-width:0.25;"/>
<line x1="178.400000" y1="103.000000" x2="181.400000" y2="104.000000"  transform="rotate(0.000000,181.400000,104.000000)" style="stroke: black; stroke-width:0.25;"/>
<line x1="178.400000" y1="105.000000" x2="181.400000" y2="104.000000"  transform="rotate(0.000000,181.400000,104.000000)" style="stroke: black; stroke-width:0.25;"/>
<rect x="91.700000" y="153.000000" width="38.700000" height="24.000000" rx="0" ry="0" style="stroke:none;fill:#cccccc;"/>
<rect x="90.700000" y="152.000000" width="38.700000" height="24.000000" rx="0" ry="0" style="stroke:none;fill:#47945E;"/>
<text x="110.050000" y="166.000000" font-family="Arial" font-size="7" text-anchor="middle" fill="#FFFFFF">[51] u1</text>
<circle cx="92.700000" cy="154.000000" r="1"/>
<a xlink:href="F1-0x7f644c2efc50.svg">
<rect x="138.400000" y="153.000000" width="24.000000" height="24.000000" rx="0" ry="0" style="stroke:none;fill:#cccccc;"/>
<rect x="137.400000" y="152.000000" width="24.000000" height="24.000000" rx="0" ry="0" style="stroke:none;fill:#003366;"/>
</a>
<a xlink:href="F1-0x7f644c2efc50.svg">
<text x="149.400000" y="166.000000" font-family="Arial" font-size="7" text-anchor="middle" fill="#FFFFFF">F1</text>
</a>
<circle cx="139.400000" cy="154.000000" r="1"/>
<line x1="134.400000" y1="163.000000" x2="137.400000" y2="164.000000"  transform="rotate(0.000000,137.400000,164.000000)" style="stroke: black; stroke-width:0.25;"/>
<line x1="134.400000" y1="165.000000" x2="137.400000" y2="164.000000"  transform="rotate(0.000000,137.400000,164.000000)" style="stroke: black; stroke-width:0.25;"/>
<rect x="115.050000" y="185.000000" width="24.000000" height="24.000000" rx="0" ry="0" style="stroke:none;fill:#cccccc;"/>
<rect x="114.050000" y="184.000000" width="24.000000" height="24.000000" rx="0" ry="0" style="stroke:none;fill:#f44800;"/>
<text x="126.050000" y="198.000000" font-family="Arial" font-size="7" text-anchor="middle" fill="#FFFFFF">3</text>
<circle cx="116.050000" cy="186.000000" r="1"/>
<rect x="178.400000" y="169.000000" width="24.000000" height="24.000000" rx="0" ry="0" style="stroke:none;fill:#cccccc;"/>
<rect x="177.400000" y="168.000000" width="24.000000" height="24.000000" rx="0" ry="0" style="stroke:none;fill:#4B71A1;"/>
<text x="189.400000" y="182.000000" font-family="Arial" font-size="7" text-anchor="middle" fill="#FFFFFF">pow</text>
<circle cx="179.400000" cy="170.000000" r="1"/>
<line x1="174.400000" y1="175.000000" x2="177.400000" y2="176.000000"  transform="rotate(0.000000,177.400000,176.000000)" style="stroke: black; stroke-width:0.25;"/>
<line x1="174.400000" y1="177.000000" x2="177.400000" y2="176.000000"  transform="rotate(0.000000,177.400000,176.000000)" style="stroke: black; stroke-width:0.25;"/>
<line x1="174.400000" y1="183.000000" x2="177.400000" y2="184.000000"  transform="rotate(0.000000,177.400000,184.000000)" style="stroke: black; stroke-width:0.25;"/>
<line x1="174.400000" y1="185.000000" x2="177.400000" y2="184.000000"  transform="rotate(0.000000,177.400000,184.000000)" style="stroke: black; stroke-width:0.25;"/>
<rect x="222.400000" y="121.000000" width="24.000000" height="24.000000" rx="0" ry="0" style="stroke:none;fill:#cccccc;"/>
<rect x="221.400000" y="120.000000" width="24.000000" height="24.000000" rx="0" ry="0" style="stroke:none;fill:#4B71A1;"/>
<text x="233.400000" y="134.000000" font-family="Arial" font-size="7" text-anchor="middle" fill="#FFFFFF">-</text>
<circle cx="223.400000" cy="122.000000" r="1"/>
<line x1="218.400000" y1="127.000000" x2="221.400000" y2="128.000000"  transform="rotate(0.000000,221.400000,128.000000)" style="stroke: black; stroke-width:0.25;"/>
<line x1="218.400000" y1="129.000000" x2="221.400000" y2="128.000000"  transform="rotate(0.000000,221.400000,128.000000)" style="stroke: black; stroke-width:0.25;"/>
<line x1="218.400000" y1="135.000000" x2="221.400000" y2="136.000000"  transform="rotate(0.000000,221.400000,136.000000)" style="stroke: black; stroke-width:0.25;"/>
<line x1="218.400000" y1="137.000000" x2="221.400000" y2="136.000000"  transform="rotate(0.000000,221.400000,136.000000)" style="stroke: black; stroke-width:0.25;"/>
<a xlink:href="F1-0x7f644c2efc50.svg">
<rect x="254.400000" y="121.000000" width="24.000000" height="24.000000" rx="0" ry="0" style="stroke:none;fill:#cccccc;"/>
<rect x="253.400000" y="120.000000" width="24.000000" height="24.000000" rx="0" ry="0" style="stroke:none;fill:#003366;"/>
</a>
<a xlink:href="F1-0x7f644c2efc50.svg">
<text x="265.400000" y="134.000000" font-family="Arial" font-size="7" text-anchor="middle" fill="#FFFFFF">F1</text>
</a>
<circle cx="255.400000" cy="122.000000" r="1"/>
<line x1="250.400000" y1="131.000000" x2="253.400000" y2="132.000000"  transform="rotate(0.000000,253.400000,132.000000)" style="stroke: black; stroke-width:0.25;"/>
<line x1="250.400000" y1="133.000000" x2="253.400000" y2="132.000000"  transform="rotate(0.000000,253.400000,132.000000)" style="stroke: black; stroke-width:0.25;"/>
<line x1="15.000000" y1="15.000000" x2="15.000000" y2="217.000000"  style="stroke: black; stroke-linecap:round; stroke-width:0.25; stroke-dasharray:3,3;"/>
<line x1="15.000000" y1="217.000000" x2="302.400000" y2="217.000000"  style="stroke: black; stroke-linecap:round; stroke-width:0.25; stroke-dasharray:3,3;"/>
<line x1="302.400000" y1="217.000000" x2="302.400000" y2="15.000000"  style="stroke: black; stroke-linecap:round; stroke-width:0.25; stroke-dasharray:3,3;"/>
<line x1="15.000000" y1="15.000000" x2="20.000000" y2="15.000000"  style="stroke: black; stroke-linecap:round; stroke-width:0.25; stroke-dasharray:3,3;"/>
<line x1="29.675000" y1="15.000000" x2="302.400000" y2="15.000000"  style="stroke: black; stroke-linecap:round; stroke-width:0.25; stroke-dasharray:3,3;"/>
<text x="20.000000" y="17.000000" font-family="Arial" font-size="7">M</text>
<line x1="304.400000" y1="111.000000" x2="307.400000" y2="112.000000"  transform="rotate(0.000000,307.400000,112.000000)" style="stroke: black; stroke-width:0.25;"/>
<line x1="304.400000" y1="113.000000" x2="307.400000" y2="112.000000"  transform="rotate(0.000000,307.400000,112.000000)" style="stroke: black; stroke-width:0.25;"/>
<line x1="304.400000" y1="119.000000" x2="307.400000" y2="120.000000"  transform="rotate(0.000000,307.400000,120.000000)" style="stroke: black; stroke-width:0.25;"/>
<line x1="304.400000" y1="121.000000" x2="307.400000" y2="120.000000"  transform="rotate(0.000000,307.400000,120.000000)" style="stroke: black; stroke-width:0.25;"/>
<line x1="10.000000" y1="112.000000" x2="20.000000" y2="112.000000"  style="stroke:black; stroke-linecap:round; stroke-width:0.25;"/>
<line x1="10.000000" y1="120.000000" x2="20.000000" y2="120.000000"  style="stroke:black; stroke-linecap:round; stroke-width:0.25;"/>
<line x1="20.000000" y1="112.000000" x2="24.000000" y2="112.000000"  style="stroke:black; stroke-linecap:round; stroke-width:0.25;"/>
<line x1="20.000000" y1="120.000000" x2="24.000000" y2="120.000000"  style="stroke:black; stroke-linecap:round; stroke-width:0.25;"/>
<line x1="24.000000" y1="112.000000" x2="28.000000" y2="112.000000"  style="stroke:black; stroke-linecap:round; stroke-width:0.25;"/>
<line x1="24.000000" y1="120.000000" x2="28.000000" y2="120.000000"  style="stroke:black; stroke-linecap:round; stroke-width:0.25;"/>
<line x1="28.000000" y1="100.000000" x2="36.000000" y2="100.000000"  style="stroke:black; stroke-linecap:round; stroke-width:0.25;"/>
<line x1="28.000000" y1="112.000000" x2="28.000000" y2="100.000000"  style="stroke:black; stroke-linecap:round; stroke-width:0.25;"/>
<line x1="28.000000" y1="112.000000" x2="28.000000" y2="112.000000"  style="stroke:black; stroke-linecap:round; stroke-width:0.25;"/>
<line x1="28.000000" y1="120.000000" x2="36.000000" y2="120.000000"  style="stroke:black; stroke-linecap:round; stroke-width:0.25;"/>
<line x1="36.000000" y1="100.000000" x2="40.000000" y2="100.000000"  style="stroke:black; stroke-linecap:round; stroke-width:0.25;"/>
<line x1="36.000000" y1="120.000000" x2="36.000000" y2="132.000000"  style="stroke:black; stroke-linecap:round; stroke-width:0.25;"/>
<line x1="36.000000" y1="132.000000" x2="36.000000" y2="132.000000"  style="stroke:black; stroke-linecap:round; stroke-width:0.25;"/>
<line x1="36.000000" y1="132.000000" x2="40.000000" y2="132.000000"  style="stroke:black; stroke-linecap:round; stroke-width:0.25;"/>
<line x1="118.050000" y1="132.000000" x2="122.050000" y2="132.000000"  style="stroke:black; stroke-linecap:round; stroke-width:0.25;"/>
<line x1="122.050000" y1="132.000000" x2="129.400000" y2="132.000000"  style="stroke:black; stroke-linecap:round; stroke-width:0.25;"/>
<line x1="125.400000" y1="100.000000" x2="129.400000" y2="100.000000"  style="stroke:black; stroke-linecap:round; stroke-width:0.25;"/>
<line x1="129.400000" y1="100.000000" x2="137.400000" y2="100.000000"  style="stroke:black; stroke-linecap:round; stroke-width:0.25;"/>
<line x1="129.400000" y1="120.000000" x2="137.400000" y2="120.000000"  style="stroke:black; stroke-linecap:round; stroke-width:0.25;"/>
<line x1="129.400000" y1="132.000000" x2="129.400000" y2="120.000000"  style="stroke:black; stroke-linecap:round; stroke-width:0.25;"/>
<line x1="129.400000" y1="132.000000" x2="129.400000" y2="132.000000"  style="stroke:black; stroke-linecap:round; stroke-width:0.25;"/>
<line x1="129.400000" y1="164.000000" x2="133.400000" y2="164.000000"  style="stroke:black; stroke-linecap:round; stroke-width:0.25;"/>
<line x1="133.400000" y1="164.000000" x2="133.400000" y2="164.000000"  style="stroke:black; stroke-linecap:round; stroke-width:0.25;"/>
<line x1="133.400000" y1="164.000000" x2="137.400000" y2="164.000000"  style="stroke:black; stroke-linecap:round; stroke-width:0.25;"/>
<line x1="137.400000" y1="100.000000" x2="137.400000" y2="112.000000"  style="stroke:black; stroke-linecap:round; stroke-width:0.25;"/>
<line x1="137.400000" y1="112.000000" x2="137.400000" y2="112.000000"  style="stroke:black; stroke-linecap:round; stroke-width:0.25;"/>
<line x1="137.400000" y1="112.000000" x2="141.400000" y2="112.000000"  style="stroke:black; stroke-linecap:round; stroke-width:0.25;"/>
<line x1="137.400000" y1="120.000000" x2="141.400000" y2="120.000000"  style="stroke:black; stroke-linecap:round; stroke-width:0.25;"/>
<line x1="138.050000" y1="196.000000" x2="142.050000" y2="196.000000"  style="stroke:black; stroke-linecap:round; stroke-width:0.25;"/>
<line x1="142.050000" y1="196.000000" x2="165.400000" y2="196.000000"  style="stroke:black; stroke-linecap:round; stroke-width:0.25;"/>
<line x1="145.400000" y1="68.000000" x2="149.400000" y2="68.000000"  style="stroke:black; stroke-linecap:round; stroke-width:0.25;"/>
<line x1="149.400000" y1="68.000000" x2="169.400000" y2="68.000000"  style="stroke:black; stroke-linecap:round; stroke-width:0.25;"/>
<line x1="161.400000" y1="164.000000" x2="165.400000" y2="164.000000"  style="stroke:black; stroke-linecap:round; stroke-width:0.25;"/>
<line x1="165.400000" y1="116.000000" x2="169.400000" y2="116.000000"  style="stroke:black; stroke-linecap:round; stroke-width:0.25;"/>
<line x1="165.400000" y1="164.000000" x2="173.400000" y2="164.000000"  style="stroke:black; stroke-linecap:round; stroke-width:0.25;"/>
<line x1="165.400000" y1="184.000000" x2="173.400000" y2="184.000000"  style="stroke:black; stroke-linecap:round; stroke-width:0.25;"/>
<line x1="165.400000" y1="196.000000" x2="165.400000" y2="184.000000"  style="stroke:black; stroke-linecap:round; stroke-width:0.25;"/>
<line x1="165.400000" y1="196.000000" x2="165.400000" y2="196.000000"  style="stroke:black; stroke-linecap:round; stroke-width:0.25;"/>
<line x1="169.400000" y1="68.000000" x2="177.400000" y2="68.000000"  style="stroke:black; stroke-linecap:round; stroke-width:0.25;"/>
<line x1="169.400000" y1="104.000000" x2="177.400000" y2="104.000000"  style="stroke:black; stroke-linecap:round; stroke-width:0.25;"/>
<line x1="169.400000" y1="116.000000" x2="169.400000" y2="104.000000"  style="stroke:black; stroke-linecap:round; stroke-width:0.25;"/>
<line x1="169.400000" y1="116.000000" x2="169.400000" y2="116.000000"  style="stroke:black; stroke-linecap:round; stroke-width:0.25;"/>
<line x1="173.400000" y1="164.000000" x2="173.400000" y2="176.000000"  style="stroke:black; stroke-linecap:round; stroke-width:0.25;"/>
<line x1="173.400000" y1="176.000000" x2="173.400000" y2="176.000000"  style="stroke:black; stroke-linecap:round; stroke-width:0.25;"/>
<line x1="173.400000" y1="176.000000" x2="177.400000" y2="176.000000"  style="stroke:black; stroke-linecap:round; stroke-width:0.25;"/>
<line x1="173.400000" y1="184.000000" x2="177.400000" y2="184.000000"  style="stroke:black; stroke-linecap:round; stroke-width:0.25;"/>
<line x1="177.400000" y1="68.000000" x2="177.400000" y2="96.000000"  style="stroke:black; stroke-linecap:round; stroke-width:0.25;"/>
<line x1="177.400000" y1="96.000000" x2="177.400000" y2="96.000000"  style="stroke:black; stroke-linecap:round; stroke-width:0.25;"/>
<line x1="177.400000" y1="96.000000" x2="181.400000" y2="96.000000"  style="stroke:black; stroke-linecap:round; stroke-width:0.25;"/>
<line x1="177.400000" y1="104.000000" x2="181.400000" y2="104.000000"  style="stroke:black; stroke-linecap:round; stroke-width:0.25;"/>
<line x1="185.400000" y1="36.000000" x2="189.400000" y2="36.000000"  style="stroke:black; stroke-linecap:round; stroke-width:0.25;"/>
<line x1="189.400000" y1="36.000000" x2="189.400000" y2="36.000000"  style="stroke:black; stroke-linecap:round; stroke-width:0.25;"/>
<line x1="189.400000" y1="36.000000" x2="193.400000" y2="36.000000"  style="stroke:black; stroke-linecap:round; stroke-width:0.25;"/>
<line x1="201.400000" y1="180.000000" x2="205.400000" y2="180.000000"  style="stroke:black; stroke-linecap:round; stroke-width:0.25;"/>
<line x1="205.400000" y1="100.000000" x2="209.400000" y2="100.000000"  style="stroke:black; stroke-linecap:round; stroke-width:0.25;"/>
<line x1="205.400000" y1="180.000000" x2="209.400000" y2="180.000000"  style="stroke:black; stroke-linecap:round; stroke-width:0.25;"/>
<line x1="209.400000" y1="100.000000" x2="217.400000" y2="100.000000"  style="stroke:black; stroke-linecap:round; stroke-width:0.25;"/>
<line x1="209.400000" y1="136.000000" x2="217.400000" y2="136.000000"  style="stroke:black; stroke-linecap:round; stroke-width:0.25;"/>
<line x1="209.400000" y1="180.000000" x2="209.400000" y2="136.000000"  style="stroke:black; stroke-linecap:round; stroke-width:0.25;"/>
<line x1="209.400000" y1="180.000000" x2="209.400000" y2="180.000000"  style="stroke:black; stroke-linecap:round; stroke-width:0.25;"/>
<line x1="217.400000" y1="36.000000" x2="221.400000" y2="36.000000"  style="stroke:black; stroke-linecap:round; stroke-width:0.25;"/>
<line x1="217.400000" y1="100.000000" x2="217.400000" y2="128.000000"  style="stroke:black; stroke-linecap:round; stroke-width:0.25;"/>
<line x1="217.400000" y1="128.000000" x2="217.400000" y2="128.000000"  style="stroke:black; stroke-linecap:round; stroke-width:0.25;"/>
<line x1="217.400000" y1="128.000000" x2="221.400000" y2="128.000000"  style="stroke:black; stroke-linecap:round; stroke-width:0.25;"/>
<line x1="217.400000" y1="136.000000" x2="221.400000" y2="136.000000"  style="stroke:black; stroke-linecap:round; stroke-width:0.25;"/>
<line x1="221.400000" y1="36.000000" x2="281.400000" y2="36.000000"  style="stroke:black; stroke-linecap:round; stroke-width:0.25;"/>
<line x1="245.400000" y1="132.000000" x2="249.400000" y2="132.000000"  style="stroke:black; stroke-linecap:round; stroke-width:0.25;"/>
<line x1="249.400000" y1="132.000000" x2="249.400000" y2="132.000000"  style="stroke:black; stroke-linecap:round; stroke-width:0.25;"/>
<line x1="249.400000" y1="132.000000" x2="253.400000" y2="132.000000"  style="stroke:black; stroke-linecap:round; stroke-width:0.25;"/>
<line x1="277.400000" y1="132.000000" x2="281.400000" y2="132.000000"  style="stroke:black; stroke-linecap:round; stroke-width:0.25;"/>
<line x1="281.400000" y1="36.000000" x2="289.400000" y2="36.000000"  style="stroke:black; stroke-linecap:round; stroke-width:0.25;"/>
<line x1="281.400000" y1="120.000000" x2="289.400000" y2="120.000000"  style="stroke:black; stroke-linecap:round; stroke-width:0.25;"/>
<line x1="281.400000" y1="132.000000" x2="281.400000" y2="120.000000"  style="stroke:black; stroke-linecap:round; stroke-width:0.25;"/>
<line x1="281.400000" y1="132.000000" x2="281.400000" y2="132.000000"  style="stroke:black; stroke-linecap:round; stroke-width:0.25;"/>
<line x1="289.400000" y1="36.000000" x2="289.400000" y2="112.000000"  style="stroke:black; stroke-linecap:round; stroke-width:0.25;"/>
<line x1="289.400000" y1="112.000000" x2="289.400000" y2="112.000000"  style="stroke:black; stroke-linecap:round; stroke-width:0.25;"/>
<line x1="289.400000" y1="112.000000" x2="293.400000" y2="112.000000"  style="stroke:black; stroke-linecap:round; stroke-width:0.25;"/>
<line x1="289.400000" y1="120.000000" x2="293.400000" y2="120.000000"  style="stroke:black; stroke-linecap:round; stroke-width:0.25;"/>
<line x1="293.400000" y1="112.000000" x2="297.400000" y2="112.000000"  style="stroke:black; stroke-linecap:round; stroke-width:0.25;"/>
<line x1="293.400000" y1="120.000000" x2="297.400000" y2="120.000000"  style="stroke:black; stroke-linecap:round; stroke-width:0.25;"/>
<line x1="297.400000" y1="112.000000" x2="307.400000" y2="112.000000"  style="stroke:black; stroke-linecap:round; stroke-width:0.25;"/>
<line x1="297.400000" y1="120.000000" x2="307.400000" y2="120.000000"  style="stroke:black; stroke-linecap:round; stroke-width:0.25;"/>
</svg>
